<?xml version="1.0" encoding="utf-8"?>
<!-- Generator: Adobe Illustrator 27.9.0, SVG Export Plug-In . SVG Version: 6.00 Build 0)  -->
<svg version="1.1" id="Layer_1" xmlns="http://www.w3.org/2000/svg" xmlns:xlink="http://www.w3.org/1999/xlink" x="0px" y="0px"
	 width="311.3px" height="53.2px" viewBox="0 0 311.3 53.2" style="enable-background:new 0 0 311.3 53.2;" xml:space="preserve">
<style type="text/css">
	.st0{fill:#FFFFFF;}
</style>
<g>
	<g>
		<path class="st0" d="M294.4,13.6c-8.3,0-14.5,6-14.5,14.2c0,8.1,6.2,14.2,14.5,14.2c8.3,0,14.5-6.1,14.5-14.2
			C308.9,19.7,302.7,13.6,294.4,13.6z M303.7,28.5c-3.3,0.9-9.1,3.1-14,8.1c-0.5,0.5-1.3,0.1-1.2-0.6c0.6-3.1,1.1-8.6-0.2-16.5
			c-0.1-0.7,0.7-1.1,1.2-0.6c2.3,2.1,7.1,6,14.2,8.3C304.4,27.4,304.4,28.4,303.7,28.5z"/>
	</g>
	<g>
		<path class="st0" d="M21,34.5c-0.9,0.7-1.9,1-3.2,1c-1.1,0-1.9-0.3-2.5-0.9c-0.6-0.6-0.9-1.5-0.9-2.7V20.9h6.8v-6.1h-6.8V8.1H6.6
			v6.6H2.4v6.1h4.2V32c0,3.2,0.9,5.6,2.7,7.3c1.8,1.7,4.3,2.5,7.5,2.5c1.3,0,2.4-0.1,3.6-0.4c1.1-0.3,2.1-0.7,2.9-1.3L21,34.5z"/>
	</g>
	<g>
		<path class="st0" d="M48.3,16.8c-2.3-2-5.5-3-9.7-3c-2.2,0-4.3,0.3-6.4,0.9c-2.1,0.6-3.9,1.4-5.3,2.4l2.8,5.5
			c1-0.8,2.2-1.4,3.6-1.8c1.4-0.5,2.8-0.7,4.3-0.7c2.1,0,3.7,0.5,4.7,1.4c1,0.9,1.6,2.2,1.6,4h-6.3c-4,0-6.9,0.7-8.8,2.2
			c-1.9,1.5-2.9,3.4-2.9,6c0,1.6,0.4,3,1.2,4.2c0.8,1.3,2,2.2,3.5,2.9c1.5,0.7,3.4,1.1,5.4,1.1c4,0,6.8-1.3,8.3-3.8v3.4h7.4V25.9
			C51.7,21.8,50.6,18.8,48.3,16.8z M43.8,32.8c-0.4,1.2-1.2,2.1-2.2,2.8c-1,0.6-2.2,0.9-3.6,0.9c-1.4,0-2.5-0.3-3.3-0.9
			c-0.8-0.6-1.2-1.4-1.2-2.4c0-2.1,1.6-3.2,4.9-3.2h5.4V32.8z"/>
	</g>
	<g>
		<path class="st0" d="M70.2,14.8c-1.6,0.7-2.9,1.7-3.8,3v-3.6h-7.5v27.2h7.9V28.5c0-2.5,0.6-4.4,1.9-5.7c1.3-1.3,3-1.9,5.3-1.9
			c0.3,0,0.9,0,1.8,0.1v-7.3C73.6,13.8,71.8,14.1,70.2,14.8z"/>
	</g>
	<g>
		<path class="st0" d="M100.8,14.2v3.5c-2.1-2.6-5.1-3.9-9-3.9c-2.5,0-4.8,0.5-6.9,1.6c-2.1,1.1-3.7,2.6-4.9,4.6
			c-1.2,2-1.8,4.3-1.8,6.9s0.6,4.9,1.8,6.9c1.2,2,2.9,3.5,4.9,4.6c2.1,1.1,4.4,1.6,6.9,1.6c3.7,0,6.5-1.1,8.6-3.4v1.2
			c0,2.5-0.7,4.4-2,5.6c-1.3,1.2-3.3,1.8-6,1.8c-1.8,0-3.5-0.3-5.3-0.8c-1.8-0.6-3.2-1.3-4.4-2.3l-3.1,5.7c1.6,1.2,3.5,2.1,5.9,2.8
			c2.4,0.6,4.9,1,7.5,1c5,0,8.8-1.2,11.4-3.6c2.6-2.4,3.9-6.1,3.9-11.1V14.2H100.8z M98.5,31.8c-1.3,1.2-3,1.8-5.1,1.8
			c-2.1,0-3.8-0.6-5.2-1.8c-1.3-1.2-2-2.8-2-4.8s0.7-3.6,2-4.8c1.3-1.2,3.1-1.8,5.2-1.8c2.1,0,3.8,0.6,5.1,1.8c1.3,1.2,2,2.8,2,4.8
			S99.8,30.5,98.5,31.8z"/>
	</g>
	<g>
		<path class="st0" d="M142.3,27.9c0-2.8-0.6-5.3-1.8-7.5c-1.2-2.1-2.9-3.8-5.1-4.9c-2.2-1.1-4.6-1.7-7.2-1.7
			c-2.7,0-5.2,0.6-7.4,1.8c-2.2,1.2-3.9,2.9-5.2,5c-1.3,2.1-1.9,4.5-1.9,7.2c0,2.7,0.6,5.1,1.9,7.2c1.3,2.1,3.1,3.8,5.5,5
			c2.4,1.2,5.1,1.8,8.1,1.8c4.9,0,8.7-1.5,11.2-4.4l-4.2-4.6c-0.9,0.9-2,1.6-3.1,2c-1.1,0.4-2.3,0.6-3.8,0.6c-2.1,0-3.8-0.5-5.2-1.5
			c-1.4-1-2.3-2.3-2.6-4h20.6C142.2,28.7,142.3,28,142.3,27.9z M121.4,25.4c0.3-1.8,1-3.1,2.2-4.1c1.2-1,2.7-1.5,4.5-1.5
			c1.8,0,3.2,0.5,4.5,1.5c1.2,1,2,2.4,2.2,4.1H121.4z"/>
	</g>
	<g>
		<path class="st0" d="M163,34.5c-0.9,0.7-1.9,1-3.2,1c-1.1,0-1.9-0.3-2.5-0.9c-0.6-0.6-0.9-1.5-0.9-2.7V20.9h6.8v-6.1h-6.8V8.1
			h-7.9v6.6h-4.2v6.1h4.2V32c0,3.2,0.9,5.6,2.7,7.3c1.8,1.7,4.3,2.5,7.5,2.5c1.2,0,2.4-0.1,3.6-0.4c1.1-0.3,2.1-0.7,2.9-1.3
			L163,34.5z"/>
	</g>
	<path class="st0" d="M188.5,14.2l-7.8,18.5l-7.5-18.5H165l11.4,27.2h8.1l11.5-27.2H188.5z"/>
	<path class="st0" d="M206.8,2.8c-0.9-0.8-2.1-1.2-3.5-1.2c-1.5,0-2.6,0.4-3.5,1.3c-0.9,0.8-1.4,1.9-1.4,3.1c0,1.2,0.5,2.3,1.4,3.1
		c0.9,0.8,2.1,1.3,3.5,1.3c1.4,0,2.6-0.4,3.5-1.3c0.9-0.9,1.4-1.9,1.4-3.3C208.2,4.6,207.7,3.6,206.8,2.8z M199.3,14.2v27.2h7.9
		V14.2H199.3z"/>
	<path class="st0" d="M234.4,3.8v13.2c-2-2.2-4.7-3.3-8.2-3.3c-2.6,0-4.9,0.6-7,1.7c-2.1,1.1-3.7,2.8-4.9,4.9
		c-1.2,2.1-1.8,4.6-1.8,7.4s0.6,5.3,1.8,7.4c1.2,2.1,2.8,3.8,4.9,4.9c2.1,1.1,4.4,1.7,7,1.7c3.7,0,6.5-1.2,8.5-3.5v3.1h7.5V3.8
		H234.4z M232.5,33.3c-1.3,1.4-3,2.1-5,2.1c-2,0-3.7-0.7-5-2.1c-1.3-1.4-2-3.2-2-5.5c0-2.3,0.7-4.1,2-5.5c1.3-1.4,3-2.1,5-2.1
		c2,0,3.6,0.7,5,2.1c1.3,1.4,2,3.2,2,5.5C234.5,30.1,233.9,31.9,232.5,33.3z"/>
	<path class="st0" d="M276.2,27.9c0-2.8-0.6-5.3-1.8-7.5s-2.9-3.8-5.1-4.9c-2.2-1.1-4.6-1.7-7.2-1.7c-2.7,0-5.2,0.6-7.4,1.8
		c-2.2,1.2-3.9,2.9-5.2,5c-1.3,2.1-1.9,4.5-1.9,7.2c0,2.7,0.6,5.1,1.9,7.2c1.3,2.1,3.1,3.8,5.5,5c2.4,1.2,5.1,1.8,8.1,1.8
		c4.9,0,8.7-1.5,11.2-4.4l-4.2-4.6c-1,0.9-2,1.6-3.1,2c-1.1,0.4-2.3,0.6-3.8,0.6c-2.1,0-3.8-0.5-5.2-1.5c-1.4-1-2.3-2.3-2.6-4h20.6
		C276.2,28.7,276.2,28,276.2,27.9z M255.4,25.4c0.3-1.8,1-3.1,2.2-4.1c1.2-1,2.7-1.5,4.5-1.5c1.8,0,3.2,0.5,4.5,1.5
		c1.2,1,2,2.4,2.2,4.1H255.4z"/>
</g>
</svg>
